<svg xmlns="http://www.w3.org/2000/svg" viewBox="0 0 48 48"><defs><linearGradient id="a" x1=".1" y1="0" x2=".9" y2="1"><stop offset="0" stop-color="#F3E4B8"/><stop offset=".55" stop-color="#C9A24D"/><stop offset="1" stop-color="#8F6B24"/></linearGradient><radialGradient id="b" cx=".85" cy="0" r=".9"><stop offset="0" stop-color="#C9A24D" stop-opacity=".38"/><stop offset="1" stop-color="#C9A24D" stop-opacity="0"/></radialGradient></defs><rect width="48" height="48" rx="11" fill="#14213D"/><rect width="48" height="48" rx="11" fill="url(#b)"/><g transform="translate(-1.5 2.5)"><path d="M12 38V17Q12 5 25 5H38V13H26Q21 13 21 19V20H35V28H21V38Z" fill="url(#a)"/><path d="M12 38V17Q12 5 25 5H38L36.2 7H25Q14 7 14 17V38Z" fill="#fff" fill-opacity=".5"/><path d="M21 28H35L33.4 26H21Z" fill="#fff" fill-opacity=".35"/><path d="M33 30H39V38H33Z" fill="#FFF3CF"/></g></svg>
